<?xml version="1.0" standalone="no"?>
<!DOCTYPE svg PUBLIC "-//W3C//DTD SVG 20010904//EN"
 "http://www.w3.org/TR/2001/REC-SVG-20010904/DTD/svg10.dtd">
<svg version="1.0" xmlns="http://www.w3.org/2000/svg"
 width="109.000000pt" height="96.000000pt" viewBox="0 0 109.000000 96.000000"
 preserveAspectRatio="xMidYMid meet">

<g transform="translate(0.000000,96.000000) scale(0.100000,-0.100000)"
fill="#000000" stroke="none">
<path d="M443 735 c-23 -7 -62 -24 -87 -39 -24 -14 -47 -26 -50 -26 -3 0 -6
14 -6 30 l0 30 -135 0 c-128 0 -135 -1 -135 -20 0 -19 7 -20 116 -20 l116 0
-60 -64 c-78 -84 -84 -111 -80 -361 l3 -190 88 -3 87 -3 0 264 c0 261 0 264
23 284 46 43 118 58 145 31 9 -9 12 -88 12 -295 l0 -283 90 0 90 0 0 264 0
264 35 31 c26 23 45 31 73 31 69 0 66 11 72 -302 l5 -283 88 -3 87 -3 -1 283
c0 307 -4 337 -52 372 -57 42 -193 22 -275 -41 -18 -14 -34 -23 -36 -22 -1 2
-10 17 -20 32 -33 53 -108 69 -193 42z"/>
</g>
</svg>
