<svg width="26" height="24" viewBox="0 0 26 24" fill="none" xmlns="http://www.w3.org/2000/svg">
<path d="M20.9346 12.3923L21.7769 11.424L21.4106 11.161L21.9966 10.635L21.5449 10.3003L22.1309 9.86993L21.7524 9.58303L22.3628 6.66619L21.4351 3.96452M21.4351 3.96452L15.478 6.12824H10.5098L4.55273 3.96452L3.625 6.66619L4.24756 9.58303L3.85693 9.86993L4.45508 10.3003L4.00342 10.635L4.58936 11.161L4.22314 11.424L5.06543 12.3923L3.78369 16.2655L4.96777 20.2223L9.13037 19.0986L9.93604 19.7441L11.584 20.8439H14.4038L16.0518 19.7441L16.8574 19.0986L21.0322 20.2223L22.2285 16.2655L20.9346 12.3923" fill="#F5841F"/>
<path d="M21.4351 3.96452L14.123 9.23635L15.478 6.12824L21.4351 3.96452Z" fill="#E27625"/>
<path d="M4.55273 3.96452L11.8037 9.28417L10.5098 6.12824L4.55273 3.96452Z" fill="#E27625"/>
<path d="M18.8105 16.1937L16.8574 19.0867L21.0322 20.2104L22.2285 16.2535L18.8105 16.1937Z" fill="#E27625"/>
<path d="M3.78369 16.2535L4.96777 20.2104L9.13037 19.0867L7.18945 16.1937L3.78369 16.2535Z" fill="#E27625"/>
<path d="M8.91064 11.2925L7.75098 13.0019L11.877 13.1813L11.7427 8.85381L8.91064 11.2925Z" fill="#E27625"/>
<path d="M17.0894 11.2925L14.2085 8.806L14.123 13.1813L18.249 13.0019L17.0894 11.2925Z" fill="#E27625"/>
<path d="M9.13037 19.0867L11.6328 17.9151L9.47217 16.2894L9.13037 19.0867Z" fill="#E27625"/>
<path d="M14.3672 17.9151L16.8574 19.0867L16.5156 16.2894L14.3672 17.9151Z" fill="#E27625"/>
<path d="M16.8574 19.0867L14.3672 17.9151L14.5747 19.4931L14.5503 20.1625L16.8574 19.0867Z" fill="#D7C1B3"/>
<path d="M9.13037 19.0867L11.4497 20.1625L11.4375 19.4931L11.6328 17.9151L9.13037 19.0867Z" fill="#D7C1B3"/>
<path d="M11.4863 15.2374L9.42334 14.6516L10.8882 13.9941L11.4863 15.2374Z" fill="#2F343B"/>
<path d="M14.5015 15.2374L15.1118 13.9941L16.5767 14.6516L14.5015 15.2374Z" fill="#2F343B"/>
<path d="M9.13037 19.0867L9.49658 16.1937L7.18945 16.2535L9.13037 19.0867Z" fill="#CC6228"/>
<path d="M16.5034 16.1937L16.8574 19.0867L18.8105 16.2535L16.5034 16.1937Z" fill="#CC6228"/>
<path d="M18.249 13.0019L14.123 13.1813L14.5015 15.2374L15.1118 13.9941L16.5767 14.6516L18.249 13.0019Z" fill="#CC6228"/>
<path d="M9.42334 14.6516L10.8882 13.9941L11.4863 15.2374L11.877 13.1813L7.75098 13.0019L9.42334 14.6516Z" fill="#CC6228"/>
<path d="M7.75098 13.0019L9.47217 16.2894L9.42334 14.6516L7.75098 13.0019Z" fill="#E27625"/>
<path d="M16.5767 14.6516L16.5156 16.2894L18.249 13.0019L16.5767 14.6516Z" fill="#E27625"/>
<path d="M11.877 13.1813L11.4863 15.2374L11.9746 17.6761L12.0845 14.4723L11.877 13.1813Z" fill="#E27625"/>
<path d="M14.123 13.1813L13.9155 14.4604L14.0132 17.6761L14.5015 15.2374L14.123 13.1813Z" fill="#E27625"/>
<path d="M14.5015 15.2374L14.0132 17.6761L14.3672 17.9151L16.5156 16.2894L16.5767 14.6516L14.5015 15.2374Z" fill="#F5841F"/>
<path d="M9.42334 14.6516L9.47217 16.2894L11.6328 17.9151L11.9746 17.6761L11.4863 15.2374L9.42334 14.6516Z" fill="#F5841F"/>
<path d="M14.5503 20.1625L14.5747 19.4931L14.3794 19.3377H11.6084L11.4375 19.4931L11.4497 20.1625L9.13037 19.0867L9.93604 19.7322L11.584 20.8439H14.4038L16.0518 19.7322L16.8574 19.0867L14.5503 20.1625Z" fill="#C0AD9E"/>
<path d="M14.3672 17.9151L14.0132 17.6761H11.9746L11.6328 17.9151L11.4375 19.4931L11.6084 19.3377H14.3794L14.5747 19.4931L14.3672 17.9151Z" fill="#2F343B"/>
<path d="M21.7524 9.58303L22.3628 6.66619L21.4351 3.96452L14.3672 9.05704L17.0894 11.2925L20.9346 12.3923L21.7769 11.424L21.4106 11.161L21.9966 10.647L21.5449 10.3003L22.1309 9.86993L21.7524 9.58303Z" fill="#763E1A"/>
<path d="M3.625 6.66619L4.24756 9.58303L3.85693 9.86993L4.44287 10.3122L3.99121 10.647L4.57715 11.161L4.21094 11.424L5.06543 12.3923L8.91064 11.2925L11.6328 9.05704L4.55273 3.96452L3.625 6.66619Z" fill="#763E1A"/>
<path d="M20.9346 12.3923L17.0894 11.2925L18.249 13.0019L16.5156 16.2894L18.8105 16.2535H22.2285L20.9346 12.3923Z" fill="#F5841F"/>
<path d="M8.91065 11.2925L5.06543 12.3923L3.78369 16.2535H7.18945L9.47217 16.2894L7.75098 13.0019L8.91065 11.2925Z" fill="#F5841F"/>
<path d="M14.123 13.1813L14.3672 9.05704L15.478 6.12824H10.5098L11.6328 9.05704L11.877 13.1813L11.9746 14.4723V17.6761H14.0132L14.0254 14.4723L14.123 13.1813Z" fill="#F5841F"/>
</svg>
