<svg width="39" height="17" viewBox="0 0 39 17" fill="none" xmlns="http://www.w3.org/2000/svg">
<mask id="mask0_2273_3220" style="mask-type:luminance" maskUnits="userSpaceOnUse" x="0" y="0" width="39" height="17">
<path d="M0.213562 0.404251H38.7864V16.4043H0.213562V0.404251Z" fill="white"/>
</mask>
<g mask="url(#mask0_2273_3220)">
<path fill-rule="evenodd" clip-rule="evenodd" d="M4.23976 7.60145C3.40847 7.29397 2.9529 7.05483 2.9529 6.67902C2.9529 6.36011 3.21485 6.17793 3.68178 6.17793C4.53587 6.17793 5.41269 6.50821 6.01627 6.80423L6.35791 4.69753C5.87962 4.46974 4.90023 4.09394 3.54512 4.09394C2.58854 4.09394 1.79133 4.34444 1.22199 4.81138C0.62976 5.30103 0.322286 6.00711 0.322286 6.8612C0.322286 8.40993 1.26751 9.07049 2.80488 9.62847C3.79563 9.98146 4.12591 10.2321 4.12591 10.6192C4.12591 10.995 3.80699 11.2114 3.22621 11.2114C2.50877 11.2114 1.32448 10.8584 0.550073 10.4029L0.208435 12.5324C0.868906 12.9082 2.0988 13.2953 3.37431 13.2953C4.38777 13.2953 5.23051 13.0562 5.79993 12.6007C6.4376 12.0996 6.76788 11.3595 6.76788 10.4029C6.76788 8.8199 5.79993 8.15943 4.23976 7.60145ZM12.3295 6.36011L12.6711 4.26476H10.8675V1.72109L8.44258 2.12013L8.09241 4.26476L7.23951 4.40312L6.92025 6.36011H8.0889V10.4712C8.0889 11.5416 8.36222 12.2819 8.92019 12.7374C9.38713 13.1132 10.059 13.2953 11.0042 13.2953C11.733 13.2953 12.1771 13.1701 12.4846 13.0904V10.8697C12.3138 10.9153 11.9266 10.995 11.6647 10.995C11.1067 10.995 10.8675 10.7103 10.8675 10.0612V6.36011H12.3295ZM17.7458 4.14236C16.9487 4.14236 16.3109 4.56087 16.0604 5.31247L15.8896 4.26476H13.4185V13.1245H16.2426V7.37366C16.5957 6.94089 17.0967 6.78442 17.78 6.78442C17.9281 6.78442 18.0874 6.78442 18.2811 6.81858V4.21069C18.0874 4.16517 17.9166 4.14236 17.7458 4.14236ZM20.3879 3.38786C21.2078 3.38786 21.8683 2.71603 21.8683 1.8961C21.8683 1.06472 21.2078 0.404251 20.3879 0.404251C19.5565 0.404251 18.896 1.06472 18.896 1.8961C18.896 2.71603 19.5565 3.38786 20.3879 3.38786ZM18.9643 4.26476H21.7999V13.1245H18.9643V4.26476ZM29.8355 5.06188C29.3344 4.41277 28.6398 4.09394 27.7515 4.09394C26.9316 4.09394 26.2141 4.43558 25.5422 5.15301L25.3942 4.26476H22.9116V16.4043L25.7359 15.9374V13.0904C26.1685 13.227 26.6127 13.2953 27.0113 13.2953C27.7174 13.2953 28.7423 13.1132 29.5394 12.2477C30.3024 11.4163 30.6896 10.1296 30.6896 8.43274C30.6896 6.92953 30.4048 5.79077 29.8355 5.06188ZM27.4896 10.5281C27.2618 10.9609 26.9088 11.1886 26.4988 11.1886C26.2141 11.1886 25.9636 11.1317 25.7359 11.0178V6.80423C26.2141 6.30322 26.6468 6.24625 26.8063 6.24625C27.5237 6.24625 27.8767 7.02066 27.8767 8.53523C27.8767 9.40068 27.7515 10.0726 27.4896 10.5281ZM38.7864 8.61491C38.7864 7.20284 38.4789 6.0868 37.8754 5.30103C37.2604 4.5039 36.338 4.09394 35.1651 4.09394C32.7621 4.09394 31.2704 5.87045 31.2704 8.71741C31.2704 10.3117 31.6689 11.5075 32.4547 12.2704C33.1608 12.9537 34.1743 13.2953 35.4839 13.2953C36.691 13.2953 37.807 13.0107 38.5131 12.5437L38.2056 10.6079C37.5109 10.9837 36.7024 11.1886 35.7914 11.1886C35.2447 11.1886 34.8689 11.0747 34.5956 10.8356C34.2995 10.5851 34.1287 10.1751 34.0718 9.5943H38.7523C38.7636 9.45765 38.7864 8.8199 38.7864 8.61491ZM34.049 7.86331C34.1287 6.59925 34.4703 6.00711 35.1194 6.00711C35.7572 6.00711 36.0875 6.6107 36.133 7.86331H34.049Z" fill="white"/>
</g>
</svg>
